# Blender v2.93.5 OBJ File: ''
# www.blender.org
mtllib advtrains_signals_ks_sign_zs10_smr0.mtl
o Cube.001
v 0.000000 1.300000 -0.324543
v 0.100000 1.200000 -0.324543
v 0.100000 1.200000 -0.344543
v 0.000000 1.300000 -0.344543
v -0.100000 1.200000 -0.344543
v -0.100000 1.200000 -0.324543
v 0.000000 0.800000 -0.344543
v 0.100000 0.700000 -0.344543
v 0.100000 0.700000 -0.324543
v 0.000000 0.800000 -0.324543
v -0.100000 0.700000 -0.344543
v -0.100000 0.700000 -0.324543
v 0.100000 0.800000 -0.324543
v 0.000000 0.900000 -0.324543
v 0.100000 0.900000 -0.324543
v 0.000000 1.000000 -0.324543
v 0.100000 1.000000 -0.324543
v 0.000000 1.100000 -0.324543
v 0.100000 1.100000 -0.324543
v 0.000000 1.200000 -0.324543
v -0.100000 0.800000 -0.324543
v -0.100000 0.900000 -0.324543
v -0.100000 1.000000 -0.324543
v -0.100000 1.100000 -0.324543
v 0.100000 0.800000 -0.344543
v 0.100000 0.900000 -0.344543
v 0.100000 1.000000 -0.344543
v 0.100000 1.100000 -0.344543
v -0.100000 0.800000 -0.344543
v -0.100000 0.900000 -0.344543
v -0.100000 1.000000 -0.344543
v -0.100000 1.100000 -0.344543
v 0.024805 1.055075 -0.324528
v 0.000000 1.055075 -0.334802
v 0.000000 1.055075 -0.334802
v 0.024805 1.055075 -0.324528
v -0.035079 1.055075 -0.299723
v -0.024805 1.055075 -0.274918
v -0.024805 1.055075 -0.274918
v -0.035079 1.055075 -0.299723
v 0.024805 1.055075 -0.274918
v 0.035079 1.055075 -0.299723
v 0.035079 1.055075 -0.299723
v 0.024805 1.055075 -0.274918
v -0.024805 1.055075 -0.324528
v -0.024805 1.055075 -0.324528
v 0.000000 1.055075 -0.264644
v 0.000000 1.055075 -0.264644
v 0.024805 -0.499729 -0.274918
v 0.035080 -0.499729 -0.299723
v 0.000000 -0.499729 -0.264644
v 0.024805 -0.499729 -0.324528
v 0.000000 -0.499729 -0.334802
v -0.024804 -0.499729 -0.274918
v -0.024804 -0.499729 -0.324528
v -0.035079 -0.499729 -0.299723
vt 0.583333 0.875000
vt 0.583333 0.750000
vt 0.583333 0.500000
vt 0.583333 0.375000
vt 0.583333 0.250000
vt 0.583333 1.000000
vt 0.250000 0.500000
vt 0.375000 0.500000
vt 0.375000 0.750000
vt 0.250000 0.750000
vt 0.125000 0.500000
vt 0.125000 0.750000
vt 0.416667 0.750000
vt 0.416667 0.875000
vt 0.375000 0.875000
vt 0.458333 0.750000
vt 0.458333 0.875000
vt 0.500000 0.750000
vt 0.500000 0.875000
vt 0.541667 0.750000
vt 0.541667 0.875000
vt 0.416667 1.000000
vt 0.375000 1.000000
vt 0.458333 1.000000
vt 0.500000 1.000000
vt 0.541667 1.000000
vt 0.416667 0.500000
vt 0.458333 0.500000
vt 0.500000 0.500000
vt 0.541667 0.500000
vt 0.375000 0.000000
vt 0.416667 0.000000
vt 0.416667 0.250000
vt 0.375000 0.250000
vt 0.458333 0.000000
vt 0.458333 0.250000
vt 0.500000 0.000000
vt 0.500000 0.250000
vt 0.541667 0.000000
vt 0.541667 0.250000
vt 0.583333 0.000000
vt 0.372863 0.578719
vt 0.372317 0.613951
vt 0.371666 0.613734
vt 0.372221 0.578991
vt 0.315877 0.640082
vt 0.292344 0.614764
vt 0.292986 0.614492
vt 0.316131 0.639438
vt 0.315346 0.553400
vt 0.349331 0.553400
vt 0.349077 0.554044
vt 0.315664 0.554020
vt 0.349861 0.640082
vt 0.349543 0.639462
vt 0.292889 0.579531
vt 0.293541 0.579748
vt 0.444102 0.636706
vt 0.409596 0.636706
vt 0.385196 0.612306
vt 0.385196 0.577799
vt 0.409596 0.553400
vt 0.444102 0.553400
vt 0.468502 0.577800
vt 0.468502 0.612306
vt 0.037160 1.987962
vt 0.036793 0.000397
vt 0.071486 0.000384
vt 0.071853 1.987948
vt 0.002468 1.987974
vt 0.002100 0.000409
vt 0.106546 1.987936
vt 0.106179 0.000371
vt 0.140872 0.000358
vt 0.141239 1.987923
vt 0.245318 1.987885
vt 0.244951 0.000319
vt 0.279643 0.000307
vt 0.280011 1.987871
vt 0.175932 1.987910
vt 0.175565 0.000345
vt 0.210258 0.000332
vt 0.210625 1.987897
vt 0.125000 1.000000
vt 0.000000 1.000000
vt -0.000000 0.875000
vt 0.000000 0.750000
vt 0.000000 0.625000
vt 0.000000 0.500000
vt 0.000000 0.375000
vt 0.125000 0.375000
vt 0.250000 0.875000
vt 0.250000 1.000000
vt 0.250000 0.375000
vt 0.250000 0.500000
vt 0.250000 0.625000
vt 0.250000 0.750000
vn 0.0001 -0.7071 0.7071
vn 0.9239 0.3827 -0.0000
vn -0.0000 0.3827 -0.9239
vn 0.0002 -0.7071 -0.7071
vn -0.9239 0.3827 0.0000
vn 0.0000 0.3827 0.9239
vn -0.7071 -0.7071 0.0000
vn 0.7071 -0.7071 0.0000
vn 0.0000 0.0000 1.0000
vn 1.0000 0.0000 0.0000
vn -1.0000 0.0000 0.0000
vn 0.0000 1.0000 0.0000
vn 0.9239 0.0000 0.3827
vn 0.3827 -0.0000 0.9239
vn 0.3827 0.0000 -0.9239
vn 0.9239 0.0000 -0.3827
vn -0.3827 -0.0000 0.9239
vn -0.9239 -0.0000 -0.3827
vn -0.9239 -0.0000 0.3827
vn -0.3827 -0.0000 -0.9239
vn 0.0000 0.0000 -1.0000
g Cube.001_Cube.001_Default_OBJ
usemtl Default_OBJ
s off
f 1/1/1 2/2/2 3/3/3 4/4/4 5/5/5 6/6/6
f 7/7/7 8/8/7 9/9/7 10/10/7
f 11/11/8 7/7/8 10/10/8 12/12/8
f 9/9/9 13/13/9 14/14/9 10/15/9
f 13/13/9 15/16/9 16/17/9 14/14/9
f 15/16/9 17/18/9 18/19/9 16/17/9
f 17/18/9 19/20/9 20/21/9 18/19/9
f 19/20/9 2/2/9 1/1/9 20/21/9
f 10/15/9 14/14/9 21/22/9 12/23/9
f 14/14/9 16/17/9 22/24/9 21/22/9
f 16/17/9 18/19/9 23/25/9 22/24/9
f 18/19/9 20/21/9 24/26/9 23/25/9
f 20/21/9 1/1/9 6/6/9 24/26/9
f 8/8/10 25/27/10 13/13/10 9/9/10
f 25/27/10 26/28/10 15/16/10 13/13/10
f 26/28/10 27/29/10 17/18/10 15/16/10
f 27/29/10 28/30/10 19/20/10 17/18/10
f 28/30/10 3/3/10 2/2/10 19/20/10
f 12/31/11 21/32/11 29/33/11 11/34/11
f 21/32/11 22/35/11 30/36/11 29/33/11
f 22/35/11 23/37/11 31/38/11 30/36/11
f 23/37/11 24/39/11 32/40/11 31/38/11
f 24/39/11 6/41/11 5/5/11 32/40/11
s 1
f 33/42/9 34/43/9 35/44/9 36/45/9
f 37/46/9 38/47/9 39/48/9 40/49/9
f 41/50/9 42/51/9 43/52/9 44/53/9
f 34/43/9 45/54/9 46/55/9 35/44/9
f 38/47/9 47/56/9 48/57/9 39/48/9
f 42/51/9 33/42/9 36/45/9 43/52/9
f 45/58/12 37/59/12 38/60/12 47/61/12 41/62/12 42/63/12 33/64/12 34/65/12
f 44/66/13 49/67/13 50/68/13 43/69/13
f 45/54/9 37/46/9 40/49/9 46/55/9
f 47/56/9 41/50/9 44/53/9 48/57/9
f 48/70/14 51/71/14 49/67/14 44/66/14
f 36/72/15 52/73/15 53/74/15 35/75/15
f 43/69/16 50/68/16 52/73/16 36/72/16
f 39/76/17 54/77/17 51/78/17 48/79/17
f 46/80/18 55/81/18 56/82/18 40/83/18
f 40/83/19 56/82/19 54/77/19 39/76/19
f 35/75/20 53/74/20 55/81/20 46/80/20
g Cube.001_Cube.001_Anzeige
usemtl Anzeige
s off
f 4/84/21 3/85/21 28/86/21 27/87/21 26/88/21 25/89/21 8/90/21 7/91/21
f 32/92/21 5/93/21 4/84/21 7/91/21 11/94/21 29/95/21 30/96/21 31/97/21
